<svg xmlns="http://www.w3.org/2000/svg" viewBox="0 0 960 480" role="img">
<title>冗余备份思维模型示意图</title>
<defs><marker id="a" markerWidth="10" markerHeight="10" refX="8" refY="3" orient="auto"><path d="M0 0 L8 3 L0 6" fill="#42667a"/></marker></defs>
<rect width="960" height="480" fill="#f7fafc"/>
<g font-family="PingFang SC, Microsoft YaHei, sans-serif">
<text x="480" y="47" font-size="31" text-anchor="middle" fill="#19354b">冗余备份思维模型</text>
<text x="480" y="80" font-size="19" text-anchor="middle" fill="#19354b">通用知识示意 · 尚未与视频内容核对</text>
<rect x="45" y="170" width="230" height="135" rx="16" fill="#e1f0ef" stroke="#9eb8c4"/>
<text x="160.0" y="206" font-size="26" text-anchor="middle" fill="#19354b">关键任务</text>
<text x="160.0" y="238" font-size="20" text-anchor="middle" fill="#19354b">先定义可承受中断</text>
<rect x="365" y="115" width="265" height="115" rx="16" fill="#e7edf8" stroke="#9eb8c4"/>
<text x="497.5" y="151" font-size="26" text-anchor="middle" fill="#19354b">替代路径</text>
<text x="497.5" y="183" font-size="20" text-anchor="middle" fill="#19354b">用于接管服务</text>
<rect x="365" y="280" width="265" height="115" rx="16" fill="#fcebdc" stroke="#9eb8c4"/>
<text x="497.5" y="316" font-size="26" text-anchor="middle" fill="#19354b">隔离备份</text>
<text x="497.5" y="348" font-size="20" text-anchor="middle" fill="#19354b">用于恢复状态</text>
<rect x="720" y="185" width="200" height="115" rx="16" fill="#e1f0ef" stroke="#9eb8c4"/>
<text x="820.0" y="221" font-size="26" text-anchor="middle" fill="#19354b">恢复演练</text>
<text x="820.0" y="253" font-size="20" text-anchor="middle" fill="#19354b">验证确实可用</text>
<path d="M275 205 L359 173" fill="none" stroke="#42667a" stroke-width="3" marker-end="url(#a)"/>
<path d="M275 270 L359 337" fill="none" stroke="#42667a" stroke-width="3" marker-end="url(#a)"/>
<path d="M630 173 L715 215" fill="none" stroke="#42667a" stroke-width="3" marker-end="url(#a)"/>
<path d="M630 337 L715 275" fill="none" stroke="#42667a" stroke-width="3" marker-end="url(#a)"/>
<text x="480" y="447" font-size="20" text-anchor="middle" fill="#19354b">副本数量不足以证明安全；检查共同失效与恢复时间</text>
</g>
</svg>